<?xml version="1.0" encoding="UTF-8"?>
<svg id="og-image" xmlns="http://www.w3.org/2000/svg" width="119.24" height="119.24" viewBox="0 0 119.24 119.24">
  <g isolation="isolate">
    <g id="Layer_2" data-name="Layer 2">
      <g id="Layer_1-2" data-name="Layer 1-2">
        <g>
          <path d="M118.34,59.62C118.34,27.19,92.05.9,59.62.9S.9,27.19.9,59.62s26.29,58.72,58.72,58.72,58.72-26.29,58.72-58.72Z" fill="#9dab7a" stroke="#fff" stroke-miterlimit="10" stroke-width=".6"/>
          <path d="M25.54,89.95c0,1.95,1.58,3.53,3.53,3.53s3.53-1.58,3.53-3.53-1.58-3.53-3.53-3.53-3.53,1.58-3.53,3.53Z" fill="none" isolation="isolate" mix-blend-mode="multiply" stroke="#f05129" stroke-miterlimit="10" stroke-width="1.2"/>
          <path d="M56.43,18.02c0,1.95,1.58,3.53,3.53,3.53s3.53-1.58,3.53-3.53-1.58-3.53-3.53-3.53-3.53,1.58-3.53,3.53Z" fill="#fff" stroke="#f05129" stroke-miterlimit="10" stroke-width="1.2"/>
          <path d="M91.06,16.41c0,1.95,1.58,3.53,3.53,3.53s3.53-1.58,3.53-3.53-1.58-3.53-3.53-3.53-3.53,1.58-3.53,3.53Z" fill="#f05129" isolation="isolate" mix-blend-mode="multiply" stroke="#f05129" stroke-miterlimit="10" stroke-width="1.2"/>
          <line x1="20.71" y1="103.84" x2="97.63" y2="103.84" fill="none" isolation="isolate" mix-blend-mode="multiply" stroke="#f05129" stroke-miterlimit="10" stroke-width="1.2"/>
          <polyline points="118.87 57.59 102.68 57.59 102.68 61.75 118.26 61.75" fill="#fff" stroke="#f05129" stroke-miterlimit="10" stroke-width="1.2"/>
          <g mix-blend-mode="multiply">
            <polyline points="77.48 113.06 77.48 92.18 84.46 97.21" fill="none" stroke="#f05129" stroke-miterlimit="10" stroke-width="1.29"/>
            <path d="M70.2,113.06c0,2.01,1.63,3.64,3.64,3.64s3.64-1.63,3.64-3.64-1.63-3.64-3.64-3.64-3.64,1.63-3.64,3.64Z" fill="#f05228" stroke="#f05129" stroke-miterlimit="10" stroke-width="1.29"/>
            <line x1="77.48" y1="95.62" x2="84.24" y2="100.64" fill="none" stroke="#f05129" stroke-miterlimit="10" stroke-width="1.29"/>
          </g>
          <path d="M109.61,91.95s-9.77-3.54-9.18-13.18" fill="none" isolation="isolate" mix-blend-mode="multiply" stroke="#f05129" stroke-miterlimit="10" stroke-width="1.2"/>
          <path d="M8.79,59.1s9.72,3.67,9,13.3" fill="none" isolation="isolate" mix-blend-mode="multiply" stroke="#f05129" stroke-miterlimit="10" stroke-width="1.2"/>
          <path d="M12.26,56.92s9.72,3.67,9,13.3" fill="none" isolation="isolate" mix-blend-mode="multiply" stroke="#f05129" stroke-miterlimit="10" stroke-width="1.2"/>
          <path d="M45.62,26.67c0,1.95,1.58,3.53,3.53,3.53s3.53-1.58,3.53-3.53-1.58-3.53-3.53-3.53-3.53,1.58-3.53,3.53Z" fill="#f05129" isolation="isolate" mix-blend-mode="multiply" stroke="#f05129" stroke-miterlimit="10" stroke-width="1.2"/>
          <path d="M41.02,103.84c0,1.95,1.58,3.53,3.53,3.53s3.53-1.58,3.53-3.53-1.58-3.53-3.53-3.53-3.53,1.58-3.53,3.53Z" fill="#fff" stroke="#f05129" stroke-miterlimit="10" stroke-width="1.2"/>
          <polyline points="28.47 9.57 28.47 39.6 34.05 39.6 34.05 23.4 34.05 6.87" fill="#fff" stroke="#f05129" stroke-miterlimit="10" stroke-width="1.2"/>
          <polyline points="19.35 17.19 19.35 35.22 24.94 35.22 24.94 19.02 24.94 12.69" fill="#fff" stroke="#f05129" stroke-miterlimit="10" stroke-width="1.2"/>
          <path d="M118.34,59.62C118.34,27.19,92.05.9,59.62.9S.9,27.19.9,59.62s26.29,58.72,58.72,58.72,58.72-26.29,58.72-58.72Z" fill="none" isolation="isolate" mix-blend-mode="multiply" stroke="#f05129" stroke-miterlimit="10" stroke-width="1.8"/>
          <line x1="39.83" y1="3.56" x2="39.83" y2="77.57" fill="none" isolation="isolate" mix-blend-mode="multiply" stroke="#f05129" stroke-miterlimit="10" stroke-width="1.2"/>
          <line x1="49.16" y1="16.19" x2="49.16" y2="44.21" fill="none" isolation="isolate" mix-blend-mode="multiply" stroke="#f05129" stroke-miterlimit="10" stroke-width="1.2"/>
          <line x1="91.35" y1="27.87" x2="109.61" y2="27.87" fill="none" isolation="isolate" mix-blend-mode="multiply" stroke="#f05129" stroke-miterlimit="10" stroke-width="1.2"/>
          <g>
            <polygon points="54.19 95.12 46.82 87.56 58.51 78.59 57.98 72.28 44.01 73.72 14.66 42.07 42.7 59.54 70.02 49.07 75.3 34.62 100.48 41.73 99.88 49.43 81.89 48.53 78.65 58.8 88.84 64.21 83.04 73.37 78.47 72.2 80.13 67.68 77.33 65.78 67.79 71.8 66.03 82.41 59.82 86.56 67.38 93.68 63 96.93 58.93 93.68 54.19 95.12" fill="#fff"/>
            <g mix-blend-mode="multiply">
              <line x1="63.98" y1="73.75" x2="77.33" y2="65.78" fill="none" stroke="#f05129" stroke-miterlimit="10" stroke-width="1.2"/>
              <polyline points="14.66 42.09 42.7 59.57 70.02 49.1 75.3 34.65 100.48 41.76 99.88 49.46 81.89 48.56 78.65 58.83 88.84 64.24 83.04 73.4 78.47 72.2" fill="none" stroke="#f05129" stroke-miterlimit="10" stroke-width="1.2"/>
              <line x1="54.79" y1="86.69" x2="64.86" y2="95.15" fill="none" stroke="#f05129" stroke-miterlimit="10" stroke-width="1.2"/>
              <polyline points="57.85 84.35 67.38 93.71 63 96.96 54.19 89.93 66.03 82.43 69.66 61.79" fill="none" stroke="#f05129" stroke-miterlimit="10" stroke-width="1.2"/>
              <polyline points="57.25 63.67 58.51 78.61 46.82 87.59 54.19 95.15 58.91 93.64" fill="none" stroke="#f05129" stroke-miterlimit="10" stroke-width="1.2"/>
              <line x1="77.07" y1="73.81" x2="81.3" y2="65.35" fill="none" stroke="#f05129" stroke-miterlimit="10" stroke-width="1.2"/>
              <line x1="79.06" y1="74.75" x2="83.49" y2="66.38" fill="none" stroke="#f05129" stroke-miterlimit="10" stroke-width="1.2"/>
              <line x1="78.5" y1="42.93" x2="103" y2="46.88" fill="none" stroke="#f05129" stroke-miterlimit="10" stroke-width="1.2"/>
              <path d="M81.95,42.93c0,1.34,1.09,2.43,2.43,2.43s2.43-1.09,2.43-2.43-1.09-2.43-2.43-2.43-2.43,1.09-2.43,2.43Z" fill="#9dab7a" stroke="#f05129" stroke-miterlimit="10" stroke-width="1.2"/>
              <line x1="73.78" y1="63.67" x2="80.13" y2="67.68" fill="none" stroke="#f05129" stroke-miterlimit="10" stroke-width="1.2"/>
              <polyline points="14.66 42.09 44.01 73.75 57.98 72.31" fill="none" stroke="#f05129" stroke-miterlimit="10" stroke-width="1.2"/>
            </g>
          </g>
        </g>
      </g>
    </g>
  </g>
</svg>