<?xml version="1.0" encoding="UTF-8"?>
<svg id="Layer_2" data-name="Layer 2" xmlns="http://www.w3.org/2000/svg" width="372.78" height="372.8" viewBox="0 0 372.78 372.8">
  <g id="Layer_1-2" data-name="Layer 1">
    <g id="Generative_Object" data-name="Generative Object">
      <path d="M213,.26c51.75-4.2,89.88,43.42,113.72,82.99,9.41-.98,30.07-3.48,38.11,1.23,10.24,6,9.34,28.67,4.3,38.11-4.34-4.55-3.04.17-5.53-.61-.79-.25-1.14-2.35-1.84-2.46-1.82-.29-1.36,2.89-2.46,3.07-.6.1-1.95-2.98-2.46-3.07-1.47-.26-1.63,2.29-2.46,2.46-1.59.32-1.54-3.23-3.69-2.46-.14.05-1.23,2.51-1.84,2.46-.52-.05-1.67-3.01-2.46-3.07-1.57-.14-1.63,2.32-2.46,2.46-1.48.25-1.56-2.19-2.46-2.46-2.1-.63-2.28,2.36-3.07,2.46-1.34.16-3.15-6.83-5.23,2.15.71,2.97,3.4-1.9,4.61-.92.37,7.51,3.3-.08,4.92,1.23.47,8.17,2.74,1.31,4.3,1.84s.39,4.1,1.84,4.3c.22.03,2.86-3.09,3.69-2.46,1.61,1.23-2.4,6.61,4.92,1.84.63,7.28,2.72.7,4.3,1.23l1.84,3.69,3.07-2.46c4.48,8.9-3.77,17.2-13.22,14.45,25.27,68.11,20.41,142.46-37.8,191.48-89.75,75.58-223.21,21.52-243.42-90.98L0,237.23l1.54-2.15,69.77-6.45c.49-39.63,12.27-80.75,28.28-116.79C118.89,68.34,160.53,4.52,213,.26Z" fill="#231f20"/>
      <g>
        <path d="M313.19,138.57c10.29,1.9,21.51,2.92,31.04,6.45,4.64,14.82,9.58,29.53,12.29,44.87l-31.66,18.75c-5.83.16-24,4.91-24.28-4.61-.04-1.29,4.85-12.07,5.53-14.75,4.2-16.58,6.72-33.53,7.07-50.71Z" fill="#ec2929"/>
        <path d="M294.14,217.87c5.01,7.33,6.46,5.37,14.45,5.23-6.5,6.14-12.04,5.55-20.59,5.23l-.61-1.23,6.76-9.22Z" fill="#ec2929"/>
        <path d="M205.62,261.51c.55,0,1.32-.19,1.54.31-10.72,6.84-21.85,13.69-33.19,19.67l26.13-19.36c1.56.65,4.65-.62,5.53-.61Z" fill="#ec2929"/>
        <g>
          <path d="M82.06,247.99l82.68,10.76c-.09,4.27-13.95,19.06-14.14,20.29-.17,1.13,4.03,7.13,3.69,8.61-.55,2.41-38,21.74-42.72,24.9-15.01-18.23-26.21-41.02-29.51-64.54Z" fill="#ec2929"/>
          <g>
            <path d="M214.84,8.25c31.12-2.35,59.93,19.64,78.99,42.11,2.95,3.48,22.6,30.39,22.74,32.58.17,2.64-6.84,3.05-8.91,4-27.12,12.44-18.72,41.64-23.05,66.08-3.4,19.18-19.4,15.5-35.35,19.98-37.1,10.42-51.46,20.41-84.21,36.27-26.31,12.74-56.05,15.68-84.83,19.06-2.08-.93.46-23.93.92-27.35C89.43,139.12,142.02,13.75,214.84,8.25Z" fill="#ec2929"/>
            <g>
              <path d="M169.97,71.57c42.11-5.25,41.82,60.06,0,54.71-30.04-3.85-29.71-51,0-54.71Z" fill="#070506"/>
              <path d="M171.81,74.64c33.26-2.89,35.27,45.3,6.15,48.56-33.59,3.76-36.88-45.89-6.15-48.56Z" fill="#fff"/>
            </g>
            <g>
              <path d="M132.47,163.77c21.48-1.91,23.58,28.98,5.53,31.96-23.57,3.9-25.87-30.16-5.53-31.96Z" fill="#070506"/>
              <path d="M130.63,167.46c19.47-4,21.53,22.66,6.76,25.2-18.43,3.17-20.41-22.4-6.76-25.2Z" fill="#fff"/>
            </g>
            <g>
              <path d="M235.74,45.13c20.11-2.79,22.32,26.73,4.92,28.89-20.53,2.55-21.87-26.54-4.92-28.89Z" fill="#070506"/>
              <path d="M237.58,48.21c14.67-.61,15.4,21.12,2.46,22.74-15.76,1.97-17.51-22.12-2.46-22.74Z" fill="#fff"/>
            </g>
          </g>
        </g>
        <g>
          <path d="M264.63,246.14c1.29.17,1.25,14.54.92,15.68-1.12,3.84-27.25,20.32-31.35,24.59l3.69,35.04c3.99.43,25.15-1.95,25.82,1.23.17.81-.15,1.81-.92,2.15-2.95,1.29-17.17-1.24-20.9,0-.96.32-1.33.26-.92,1.54.73,2.3,27.28,2.51,27.66,6.15.5,4.82-15.38-1.25-18.44.61,1.4,1.66,20.11,12.32,13.22,13.83l-26.74-14.45c4.52,4.89,10.72,8.82,14.75,14.14,1.75,2.31,5.59,6.22,2.15,8.3-8.2-8.57-16.88-16.4-26.74-23.05,0-11.03,1.8-24.18.61-35.04-.32-2.93-4.45-14-4.3-14.75.13-.65,6.86-8.45,7.99-10.45,1.34-2.36,5.88-13.69,7.07-14.45.95-.61,10.77-2.52,13.52-3.69,4.26-1.8,9.05-4.77,12.91-7.38Z" fill="#fff"/>
          <path d="M299.06,208.03c.45-.02,3.36,5.25,4.3,5.53,1.03.31,19.77-.9,21.51-1.23,2.78-.53,6.4-3.91,7.38-3.69,1.11.26,14.66,16.4,14.45,17.52-1.07,5.69-11.63-9.47-12.6-9.53-5.34-.32,7.74,13.65,2.46,14.75-3.01.63-7.09-13.47-9.84-14.14-3.66-.89-21.51,4.12-25.82,3.07-.38-.09-5.18-5.45-5.23-5.84-.04-.36,2.95-5.44,3.38-6.45Z" fill="#fff"/>
          <path d="M211.15,187.75c2.94.13,8.01,25.73,10.14,29.2.05,1.26-4.92,3.42-5.23,3.38-1.6-.23-12.22-24.39-14.45-27.35.1-.75,8.99-5.25,9.53-5.23Z" fill="#ec2929"/>
          <path d="M244.96,177.3c.79.15,1.04.26,1.54.92l-.31,13.22-10.14-10.76c.1-.47,8.44-3.47,8.91-3.38Z" fill="#ec2929"/>
          <path d="M128.78,224.01c.68.03,1.69-.25,2.15.31l.31,10.14-6.45-8.3c-.82-1.6,3.77-2.16,4-2.15Z" fill="#ec2929"/>
          <path d="M161.36,214.18c1.03.33,1.88,9.96,1.23,10.45l-7.07-7.07c.03-.35,5.52-3.48,5.84-3.38Z" fill="#ec2929"/>
          <path d="M100.5,228.93c.36.24.99,8.67-.61,8.61l-4.61-7.68c1.18.2,5-1.07,5.23-.92Z" fill="#ec2929"/>
          <path d="M181.65,203.11c.54.03,1.22-.22,1.54.31l-.31,8.3-4.61-5.84c-.24-1.03,3.16-2.78,3.38-2.77Z" fill="#ec2929"/>
          <path d="M330.41,118.9c1.97-.2,1.15,5.1-1.23,3.69-.67-.4,1.04-3.67,1.23-3.69Z" fill="#fff"/>
          <path d="M326.72,118.9c1.5,2.06-2.06,3.3-2.77,2.15l2.77-2.15Z" fill="#e5e0e2"/>
          <g>
            <path d="M270.47,194.81c-.75-1.29-2.61-1.23-3.07,0-.73,1.93,15.75,32.52,18.13,36.58,1.12.43,22.15-.09,23.97-.61.49-.14,4.02-3.69,4.3-3.69,1.16,0,14.69,17,14.45,18.13-1.3,6.01-10.55-8.5-12.6-9.53-4.62-.4,6.37,13.1,2.46,14.75-3.28,1.39-6.52-12.68-9.22-14.14l-26.43,2.46-22.13-39.34,15.68,34.73c-20.02,18.67-45.65,23.44-72.23,24.9l-.92-1.54c2.41-5.18,4.4-11.49,4.92-17.21.22-2.39.91-24.08-3.38-22.44-1.06.41.62,19.17.31,22.44-2.42,25.58-21.7,28.5-38.73,43.03,4.55,11.55,2.69,24.16,3.07,36.27.86,1.93,24.99-1.45,25.82,2.46.17.81-.15,1.81-.92,2.15-3,1.32-16.59-2.05-20.9-.61-.95.32-1.33.26-.92,1.54.7,2.22,25.89,3.23,27.05,6.15,2.25,5.68-16.06-.78-18.44.61,1.16,2.09,19.02,11.56,13.83,13.83-2.42,1.06-21.22-14.96-26.13-14.45-.75,1.16,17.76,17.04,17.83,20.9-.45.29-1.24,1.48-1.54,1.54-1.75.33-22.32-22.05-26.74-23.67.3-13.59,2.53-28.44,0-41.8-.34-1.8-3.68-7.55-3.69-7.99-.02-1.08,10.58-14.79,12.29-17.83s13.98-25.53,14.14-27.05c.09-.82-.1-1.83-.92-2.15-2.86-1.12-11.1,19.65-13.52,21.51l-148.45-17.52,72.84-7.07c2.61,1.41,9.7,14.37,11.68,13.52,2.53-3.11.29-13.58,3.07-15.37.66-.42,14.62-2.68,15.37-2.46,2.12.63,10.25,17.13,12.91,15.98,2.54-3.25-.71-17.07,1.84-19.06.68-.53,15.76-4.48,16.6-4.3,1.99.42,9.73,12.1,13.52,11.68,2.48-1.02-1.46-14.81-.92-16.9.19-.75,9.34-5.96,10.14-5.84,1.62.25,7.67,9.78,10.45,10.45,2.23-.8.03-14.57.92-16.9.44-1.17,10-5.39,11.37-7.07,3.3.02,14.03,30.16,17.83,30.12.55,0,9.33-3.87,9.53-5.23.47-3.2-10.23-29.32-9.22-31.96,2.86-1.35,14.51-5.79,16.9-5.23,1.96.46,13.59,17.01,15.98,15.98,2.57-3.56-.75-19.42,1.84-21.51,4.02-3.23,24.98-3.29,31.35-8.61,11.26-9.4,3.4-53.87,15.06-69.15,7.46-9.78,26.16-12.48,37.8-13.22,26-1.65,39.45-.51,34.12,30.43l-55.94-1.23,8.3,9.53,43.34,15.06c-2.92,4.05-3.2,4.78-8.3,4.61-12.05-.41-31.27-8.41-43.03-8.61-1.28-.02-2.51-.36-3.38.92-.05,30.45-5.68,63.46-24.28,88.21" fill="#fff"/>
            <path d="M358.07,91.85c2.58-1.51,7.31,3.93,5.53,6.76-1.36,1.11-6.68-6.09-5.53-6.76Z" fill="#070506"/>
            <g>
              <path d="M321.8,93.7c11.38-1.69,8.96,17.18-1.84,12.29-5.4-2.44-3.84-11.45,1.84-12.29Z" fill="#070506"/>
              <path d="M322.41,96.77c5.46-1,5.1,8.28-.61,6.76-2.91-.77-2.65-6.16.61-6.76Z" fill="#fff"/>
            </g>
          </g>
        </g>
      </g>
    </g>
  </g>
</svg>