<?xml version="1.0" encoding="UTF-8"?>
<svg xmlns="http://www.w3.org/2000/svg" width="155.68" height="147.79" viewBox="0 0 155.68 147.79">
  <g isolation="isolate">
    <g id="Layer_2" data-name="Layer 2">
      <g id="Layer_1-2" data-name="Layer 1">
        <g>
          <path d="M135.12,75.34c0-32.43-26.29-58.72-58.72-58.72s-58.72,26.29-58.72,58.72,26.29,58.72,58.72,58.72,58.72-26.29,58.72-58.72Z" fill="#ed1c24" stroke="#fff" stroke-miterlimit="10" stroke-width=".6"/>
          <path d="M42.32,105.67c0,1.95,1.58,3.53,3.53,3.53s3.53-1.58,3.53-3.53-1.58-3.53-3.53-3.53-3.53,1.58-3.53,3.53Z" fill="none" mix-blend-mode="multiply" stroke="#231f20" stroke-miterlimit="10" stroke-width="1.2"/>
          <path d="M73.21,33.74c0,1.95,1.58,3.53,3.53,3.53s3.53-1.58,3.53-3.53-1.58-3.53-3.53-3.53-3.53,1.58-3.53,3.53Z" fill="#fff" stroke="#231f20" stroke-miterlimit="10" stroke-width="1.2"/>
          <path d="M107.84,32.13c0,1.95,1.58,3.53,3.53,3.53s3.53-1.58,3.53-3.53-1.58-3.53-3.53-3.53-3.53,1.58-3.53,3.53Z" fill="#231f20" mix-blend-mode="multiply" stroke="#231f20" stroke-miterlimit="10" stroke-width="1.2"/>
          <line x1="37.49" y1="119.56" x2="114.41" y2="119.56" fill="none" mix-blend-mode="multiply" stroke="#231f20" stroke-miterlimit="10" stroke-width="1.2"/>
          <polyline points="135.65 73.31 119.46 73.31 119.46 77.47 135.04 77.47" fill="#fff" stroke="#231f20" stroke-miterlimit="10" stroke-width="1.2"/>
          <g mix-blend-mode="multiply">
            <path d="M86.98,128.78c0,2.01,1.63,3.64,3.64,3.64s3.64-1.63,3.64-3.64-1.63-3.64-3.64-3.64-3.64,1.63-3.64,3.64Z" fill="#231f20" stroke="#231f20" stroke-miterlimit="10" stroke-width="1.29"/>
            <polyline points="94.26 128.78 94.26 107.9 101.24 112.93" fill="none" stroke="#231f20" stroke-miterlimit="10" stroke-width="1.29"/>
            <line x1="94.26" y1="111.34" x2="101.02" y2="116.36" fill="none" stroke="#231f20" stroke-miterlimit="10" stroke-width="1.29"/>
          </g>
          <path d="M126.39,107.67s-9.77-3.54-9.18-13.18" fill="none" mix-blend-mode="multiply" stroke="#231f20" stroke-miterlimit="10" stroke-width="1.2"/>
          <path d="M25.57,74.82s9.72,3.67,9,13.3" fill="none" mix-blend-mode="multiply" stroke="#231f20" stroke-miterlimit="10" stroke-width="1.2"/>
          <path d="M29.04,72.64s9.72,3.67,9,13.3" fill="none" mix-blend-mode="multiply" stroke="#231f20" stroke-miterlimit="10" stroke-width="1.2"/>
          <path d="M62.4,42.39c0,1.95,1.58,3.53,3.53,3.53s3.53-1.58,3.53-3.53-1.58-3.53-3.53-3.53-3.53,1.58-3.53,3.53Z" fill="#231f20" mix-blend-mode="multiply" stroke="#231f20" stroke-miterlimit="10" stroke-width="1.2"/>
          <path d="M57.8,119.56c0,1.95,1.58,3.53,3.53,3.53s3.53-1.58,3.53-3.53-1.58-3.53-3.53-3.53-3.53,1.58-3.53,3.53Z" fill="#fff" stroke="#231f20" stroke-miterlimit="10" stroke-width="1.2"/>
          <polyline points="45.25 25.29 45.25 55.32 50.83 55.32 50.83 39.12 50.83 22.59" fill="#fff" stroke="#231f20" stroke-miterlimit="10" stroke-width="1.2"/>
          <polyline points="36.13 32.91 36.13 50.94 41.72 50.94 41.72 34.74 41.72 28.41" fill="#fff" stroke="#231f20" stroke-miterlimit="10" stroke-width="1.2"/>
          <path d="M135.12,75.34c0-32.43-26.29-58.72-58.72-58.72s-58.72,26.29-58.72,58.72,26.29,58.72,58.72,58.72,58.72-26.29,58.72-58.72Z" fill="none" mix-blend-mode="multiply" stroke="#231f20" stroke-miterlimit="10" stroke-width="1.8"/>
          <line x1="56.61" y1="19.28" x2="56.61" y2="93.29" fill="#fff" mix-blend-mode="multiply" stroke="#231f20" stroke-miterlimit="10" stroke-width="1.2"/>
          <line x1="65.94" y1="31.91" x2="65.94" y2="59.93" fill="#fff" mix-blend-mode="multiply" stroke="#231f20" stroke-miterlimit="10" stroke-width="1.2"/>
          <line x1="108.13" y1="43.59" x2="126.39" y2="43.59" fill="#fff" mix-blend-mode="multiply" stroke="#231f20" stroke-miterlimit="10" stroke-width="1.2"/>
          <g>
            <polygon points="70.97 110.84 63.6 103.28 75.29 94.31 74.76 88 60.79 89.44 31.44 57.79 59.48 75.26 86.8 64.79 92.08 50.34 117.26 57.45 116.66 65.15 98.67 64.25 95.43 74.52 105.62 79.93 99.82 89.09 95.25 87.92 96.91 83.4 94.11 81.5 84.57 87.52 82.81 98.13 76.6 102.28 84.16 109.4 79.78 112.65 75.71 109.4 70.97 110.84" fill="#fff"/>
            <g mix-blend-mode="multiply">
              <line x1="80.76" y1="89.47" x2="94.11" y2="81.5" fill="none" stroke="#231f20" stroke-miterlimit="10" stroke-width="1.2"/>
              <polyline points="31.44 57.81 59.48 75.29 86.8 64.82 92.08 50.37 117.26 57.48 116.66 65.18 98.67 64.28 95.43 74.55 105.62 79.96 99.82 89.12 95.25 87.92" fill="none" stroke="#231f20" stroke-miterlimit="10" stroke-width="1.2"/>
              <line x1="71.57" y1="102.41" x2="81.64" y2="110.87" fill="none" stroke="#231f20" stroke-miterlimit="10" stroke-width="1.2"/>
              <polyline points="74.63 100.07 84.16 109.43 79.78 112.68 70.97 105.65 82.81 98.15 86.44 77.51" fill="none" stroke="#231f20" stroke-miterlimit="10" stroke-width="1.2"/>
              <polyline points="74.03 79.39 75.29 94.33 63.6 103.31 70.97 110.87 75.69 109.36" fill="none" stroke="#231f20" stroke-miterlimit="10" stroke-width="1.2"/>
              <line x1="93.85" y1="89.53" x2="98.08" y2="81.07" fill="none" stroke="#231f20" stroke-miterlimit="10" stroke-width="1.2"/>
              <line x1="95.84" y1="90.47" x2="100.27" y2="82.1" fill="none" stroke="#231f20" stroke-miterlimit="10" stroke-width="1.2"/>
              <line x1="95.28" y1="58.65" x2="119.78" y2="62.6" fill="none" stroke="#231f20" stroke-miterlimit="10" stroke-width="1.2"/>
              <path d="M98.73,58.65c0,1.34,1.09,2.43,2.43,2.43s2.43-1.09,2.43-2.43-1.09-2.43-2.43-2.43-2.43,1.09-2.43,2.43Z" fill="#ed1c24" stroke="#231f20" stroke-miterlimit="10" stroke-width="1.2"/>
              <line x1="90.56" y1="79.39" x2="96.91" y2="83.4" fill="none" stroke="#231f20" stroke-miterlimit="10" stroke-width="1.2"/>
              <polyline points="31.44 57.81 60.79 89.47 74.76 88.03" fill="none" stroke="#231f20" stroke-miterlimit="10" stroke-width="1.2"/>
            </g>
          </g>
        </g>
      </g>
    </g>
  </g>
</svg>