<?xml version="1.0" encoding="UTF-8"?>
<svg id="Layer_2" data-name="Layer 2" xmlns="http://www.w3.org/2000/svg" width="175.28" height="112.73" viewBox="0 0 175.28 112.73">
  <g id="Layer_1-2" data-name="Layer 1">
    <path d="M39.63,87.68c-1.56-2.32-2.95-4.78-4.14-7.3-3.55-7.54-5.36-15.62-5.36-24.01C30.13,25.29,55.42,0,86.5,0c21.77,0,41.81,12.74,51.06,32.45l-2.72,1.27C126.08,15.06,107.11,3,86.5,3c-29.43,0-53.37,23.94-53.37,53.37,0,7.95,1.71,15.6,5.07,22.73,1.13,2.39,2.44,4.71,3.92,6.91l-2.49,1.67Z" fill="#231f20"/>
    <path d="M86.5,112.73c-13.48,0-26.53-4.83-36.73-13.61l1.96-2.28c9.66,8.31,22.01,12.89,34.78,12.89,29.43,0,53.37-23.94,53.37-53.36v-.57c0-3.72,0-5.97-.8-9.52l2.93-.66c.87,3.88.87,6.38.87,10.18v.57c0,31.08-25.29,56.36-56.37,56.36Z" fill="#231f20"/>
    <path d="M11.44,107.93c-7.47,0-9.77-1.82-10.77-3.5-2.21-3.7,1.56-8.36,3.82-11.15.39-.48.87-1.07.97-1.25,1.28-2.56,19.98-16.63,25.69-20.89l1.53-1.14,4.91,11.46-1.06.69c-4.75,3.08-9.11,6.71-10.04,8.29h.02c6.11,0,58.58-25.11,76.76-37.66,3.08-2.12,6.6-4.51,10.31-7.03,12.79-8.66,33.85-22.93,36.12-27.03-2.14.05-8.96,3.22-15.47,7.25l-1.11.69-8.08-9.7,1.54-.89c1.29-.75,31.79-18.24,44.58-11.85,2.39,1.19,3.8,3.07,4.07,5.42.47,3.99-2.33,9.41-8.34,16.1-4.32,4.81-8.69,8.51-8.88,8.66-.26.2-20.76,15.85-46.47,32.33-34.61,22.19-61.67,35.26-80.44,38.84-8.93,1.71-15.21,2.35-19.66,2.35ZM31.41,74.69c-9.54,7.16-22.26,17.06-23.29,18.72-.2.4-.58.88-1.3,1.77-1.53,1.89-4.71,5.81-3.58,7.72.8,1.34,5.06,3.99,27.29-.26,43.93-8.39,124.78-69.95,125.59-70.57,4.7-3.96,16.87-15.73,16.12-22.07-.16-1.35-.94-2.33-2.44-3.08-4.6-2.3-13.21-1.04-24.9,3.65-6.65,2.67-12.57,5.77-15.28,7.24l4.12,4.94c4.9-2.96,14.26-8.15,17.56-6.71.8.35,1.33,1.01,1.5,1.86.73,3.67-9.2,11.14-37.56,30.35-3.7,2.51-7.22,4.89-10.29,7.01-15.25,10.53-70.03,38.15-78.78,38.15-.23,0-.42-.02-.58-.06-1.71-.39-2.15-1.48-2.25-2.08-.51-2.88,5.19-7.41,10.49-10.93l-2.42-5.64Z" fill="#231f20"/>
  </g>
</svg>