<?xml version="1.0" encoding="UTF-8"?>
<svg id="Layer_1" data-name="Layer 1" xmlns="http://www.w3.org/2000/svg" width="2.43in" height="1.57in" viewBox="0 0 175.27 112.73">
  <path d="M141.35,56.37c0,30.3-24.56,54.87-54.87,54.87-21.94,0-40.88-12.88-49.65-31.49-3.34-7.09-5.21-15.01-5.21-23.37C31.62,26.06,56.19,1.5,86.49,1.5s54.87,24.56,54.87,54.87Z" fill="#fff" stroke="#231f20" stroke-miterlimit="10" stroke-width="3"/>
  <path d="M35.69,80.9s-15.07,9.77-9.77,10.99,61.08-26.06,78.18-37.87c17.1-11.81,48.05-31.76,47.23-35.83s-17.92,6.51-17.92,6.51l-6.11-7.33S158.25-.54,170.47,5.57s-13.44,27.69-13.44,27.69c0,0-81.44,62.3-126.22,70.85s-25.24-8.96-24.02-11.4,25.24-20.36,25.24-20.36l3.66,8.55Z" fill="#fff" stroke="#231f20" stroke-miterlimit="10" stroke-width="3"/>
</svg>