<?xml version="1.0" encoding="UTF-8"?>
<svg id="Layer_2" data-name="Layer 2" xmlns="http://www.w3.org/2000/svg" width="873.33" height="211.38" viewBox="0 0 873.33 211.38">
  <g id="Layer_1-2" data-name="Layer 1">
    <g>
      <path d="M165.71,65.16c-.71,6.66-6.15,8.66-9.46,14.44-2.6,5.11-.95,14.44-8.51,14.44-2.36,0-5.44-1.33-7.09-1.33-5.91,0-10.88,2.89-10.88,8,0,3.55,2.13,5.33,5.2,7.55,2.6,2.44,6.15,1.33,8.98,2.89,4.73,2.22,7.09,4,10.4,8,3.31,4,6.15,6.66,6.15,11.55-.47,6.44-4.96,8.22-8.27,12.44-5.2,6.66-4.97,8.88-10.64,14.88-4.49,4.66-10.4,8.88-15.6,12.88-4.26,3.33-9.22,2.89-11.82,7.55-1.42,2.44-.47,7.77-1.18,8.66-1.65,2.44-4.02,3.11-6.62,3.11-9.69,0-15.37-7.55-23.41-8.44-13.24-1.33-21.04-6.89-34.05-6.89-10.88,0-14.42,0-24.12,4.22-1.66,0-3.78-4.66-3.78-7.55,0-4.89,9.69-5.77,12.06-6.89,6.62-3.11,10.64-4.44,16.55-8.66,3.78-2.67,7.33-3.55,8.51-7.55,2.6-9.55,5.91-9.55,8.04-12.66,1.18-2,1.65-4.66,1.65-7.11,0-3.33-.95-6.22-1.65-7.33-3.31-4.44-8.51-3.11-13.95-3.55-1.65-.22-3.07-.22-4.49-.22-5.67,0-13.48,1.33-18.44,4.22-4.49,2.67-8.28,7.33-8.28,12.44,0,3.11.95,6,.95,9.55,0,1.78,0,5.55-2.13,5.55-7.57,0-11.35-4.66-11.35-11.99,0-15.55-2.13-17.1-3.31-20.43-1.66-4-3.31-6.89-3.31-10.44,0-.89.24-2,.47-3.11.47-2.44,2.6-3.33,2.6-5.55,0-3.33-2.36-5.11-2.36-9.11,0-3.11,2.13-2.22,3.31-5.55,1.89-5.55,2.13-8.88,2.13-14.44,0-3.55-.47-5.33-.47-6.22,0-12.22,4.73-17.55,4.73-18.44,0-5.11,4.02-8.88,4.73-8.88-.24-.67-.95-3.55-.95-5.33,0-5.55,8.27-3.78,12.77-5.55,8.98-3.55,12.53-8.66,22.7-8.66,13.95,0,18.21,8.66,25.3,17.99,4.02,5.11,2.36,13.99,8.98,13.99,3.31,0,5.44-1.33,7.8-3.33,2.84-2.22,3.07-4.66,5.91-6.44,2.36-1.55,4.96-.67,6.86-2.89,1.66-2,.24-4.22,1.66-6.22,2.36-2.89,5.91-1.55,9.46-2.89,5.2-2.44,5.91-5.77,11.82-5.77,4.26,0,6.62,1.55,9.69,3.11,4.73,2.22,9.46,3.33,12.06,8,6.38,11.99,6.38,13.55,8.04,15.77,2.6,3.78,3.31,5.11,4.49,8,1.18,3.33,2.13,5.55,2.13,8.44v1.78ZM64.75,78.04c0-2-1.42-3.55-1.89-5.77-1.42-4.89-1.89-8-4.97-11.99-3.07-3.55-5.67-4.66-9.93-6.89-4.73-2.44-8.75-6-13-6-1.42,0-2.6.22-4.02,1.11-3.78,2.22-3.31,5.77-5.44,9.55s-3.55,6-5.2,10c-3.07,7.11-4.49,11.55-4.49,19.32,0,9.99.47,14.44,3.78,19.55,1.89,2.89,2.13,6.89,5.91,6.89,2.13,0,8.75-1.11,12.77-4.44,2.6-2,2.84-4.66,5.44-6.89,5.67-4.89,15.84.22,18.68-6.66.47-1.11.71-2.22.71-3.11,0-4.66.47-10.22,1.42-12.88l.24-1.78ZM131.66,151.11c0-2.67-2.13-4.66-2.84-8-.71-2.67,0-5.77-1.18-7.55-1.66-3.11-3.78-5.55-7.8-5.55-14.19,0-14.9-4.44-19.15-4.44-3.31,0-5.2,1.55-7.33,4-3.07,3.11-3.31,5.77-5.2,9.77-1.65,3.11-4.73,5.55-4.73,8.22,0,4.22,4.73,4,7.8,5.33,4.49,1.78,6.86,2.89,11.35,3.78,4.96,1.11,8.04.22,13,1.11,2.84.67,4.49,2.22,7.09,2.22,5.67,0,7.8-3.78,8.75-7.55.24-.44.24-.89.24-1.33ZM132.61,78.26c.71-1.55.95-2.89.95-4.22,0-1.78-.47-3.55-.95-5.77-1.42-4.66-4.26-6.66-7.8-10.22-4.02-4-6.15-8.44-11.82-8.44s-8.51.44-10.64,2.67c-1.89,2.22-.71,4.66-2.13,7.33-1.89,3.33-5.2,3.78-5.2,7.33,0,4.44,3.55,4,5.67,8,1.89,2.89,2.36,5.11,2.84,8.44,0,3.11-.95,5.11-.95,6.89,0,4.44,5.67,5.77,9.69,5.77,5.67,0,10.17-2.22,13.24-6.22l7.09-11.55Z" fill="#231f20" stroke="#fbee3a" stroke-miterlimit="10" stroke-width="3.71"/>
      <path d="M303.31,168.21c0,3.78-7.57,6.44-10.4,9.33-4.26,4-6.62,9.77-12.77,9.77-3.31,0-4.49-2.67-6.38-4.22-4.97-4-10.17-13.99-17.5-14.88-8.04-.89-7.8-2.89-9.46-4.22-2.36-2.22-5.91-.89-5.91-4s1.65-3.33,3.55-5.77c3.07-3.78,6.38-5.11,8.04-9.77.71-2,.95-3.78.95-5.55,0-2.89-.71-5.55-2.13-8.88-.71-1.78-.47-4.22-3.55-4.22-1.18,0-2.6.44-4.73,1.11-1.89,0-3.55-1.55-5.91-1.55-3.55,0-4.26,3.11-7.09,3.33-2.84,0-4.02-1.78-6.86-2.44-2.36-.44-4.26-.67-6.15-.67-3.78,0-8.28,1.33-12.29,1.33-4.96,0-7.33.22-8.51,2.67-.24.67-.47,1.11-.47,1.55,0,1.11.71,2.22.71,3.78,0,4.89-4.96,8-4.96,7.77,0,4.89,8.28,6,12.77,9.99,3.78,3.33,4.73,8.44,9.93,8.44,4.73,0,4.96-8,9.46-8,4.02,0,7.8,2,7.8,5.55,0,4.22-7.8,2.67-8.75,6.44-.71,2.67-.95,4.44-.95,5.55,0,4.22-9.22,14.88-13.71,14.88-2.6,0-26.01-4-26.01-8,0-1.33,4.26-4,4.26-6.22,0-3.33-3.78-3.33-6.38-5.11-3.07-2.44-6.15-2.89-8.04-6.22-1.18-2.44-1.42-4.22-1.42-6.89,0-7.33,4.49-11.11,8.04-17.55,3.55-7.11,5.91-10.88,9.93-17.77,2.84-4.89,4.97-7.33,7.33-12.44,2.36-4.89,4.02-7.55,4.96-12.66.24-1.55,0-2.67.47-4.22,1.18-3.55,3.55-4.89,6.62-7.55,2.84-2.67,5.67-3.11,8.28-6,2.84-2.89,6.38-5.33,6.38-8.66,0-2.22-2.13-5.77-4.49-5.77-2.6,0-5.44,3.11-8.51,3.11-7.33,0-5.67-9.55-12.29-9.55-2.13,0-4.02,1.11-5.91,1.11-2.13,0-3.78-2-3.78-3.78,0-2.67,3.07-5.77,4.26-8.88,1.42-3.11,4.02-4.22,4.02-7.55,0-2.67-2.36-3.78-2.36-6,0-4.66,4.49-6.44,8.27-6.66,2.84,0,6.62.67,7.09.67,4.96,0,4.49-7.11,8.98-7.55,11.35-1.11,11.82-3.78,14.9-6.66,2.84-2.67,3.31-6.66,7.33-6.89,4.26,0,9.22,4.22,9.22,8.66,0,2,0,3.78,1.66,4,13,1.78,11.59,8.66,19.15,8.66,14.19,0,16.31-8.66,20.1-8.66,3.31,0,8.28,3.78,8.28,5.11,0,2.44-2.36,3.11-4.49,4.66-3.78,2.89-8.28,2.67-8.28,8.44,0,7.33-2.13,13.77-2.13,19.1,0,7.55,2.84,5.77,2.84,11.1,0,7.55,0,11.99-.71,15.77-.71,4.44-2.13,7.11-2.13,11.55.24,3.55,2.36,5.77,2.36,8.88,0,4.44-4.49,6.44-4.49,11.11s3.31,20.43,3.31,21.32c0,4-1.18,11.11-1.18,12.44,0,4.44,3.31,7.11,6.62,9.77,3.55,3.11,7.09,3.33,9.93,6.89,1.66,2.44,3.31,4.22,3.31,6.89v.67ZM237.58,44.06c0-2.89-2.36-6.22-4.97-8.88-2.84-2.67-5.2-4.44-9.22-4.44-4.73,0-7.09.89-9.93,2.67-3.78,2.22-8.04,4.66-8.04,8.44,0,.44,0,.89.24,1.33,1.18,4.44,9.46.89,11.11,5.11,1.18,2.22.47,6.89,3.07,6.89,10.4,0,14.9-6,16.55-8.22.71-.89,1.18-1.78,1.18-2.89ZM229.31,112.02c-2.36,0-6.86,2.67-9.46,2.89-2.6,0-4.49-.67-6.62-.67-1.89,0-6.38,1.33-6.62,3.55,0,.89.47,1.11,1.42,1.11,1.42,0,3.78-.67,5.44-.67,3.78.22,6.38,1.55,9.46,1.55,2.84,0,9.69-2,9.69-4.22,0-.22,0-.67-.24-.89l-3.07-2.67ZM226.23,94.48c-4.73.22-8.98,3.78-8.98,4.44s.47,1.11.95,1.11c4.96,0,7.57.22,9.46.22,5.67,0,12.06-1.11,16.31-2.67.95-.44,1.66-1.55,1.66-2.67,0-.89-.47-1.78-1.42-1.78-4.97.67-13,1.11-17.97,1.33ZM253.9,58.72c0-1.33-3.31-7.33-6.15-7.33-3.78,0-4.49,6.22-6.86,8.22-2.6,2.22-5.44,2.22-7.8,4.66-3.07,3.11-2.6,6.22-4.96,9.77-1.89,2.67-5.44,3.55-5.44,6.44,0,3.78,2.84,6,6.38,6.22,2.6,0,3.31-3.33,5.67-3.33,3.07,0,3.07,3.33,5.67,4.22,1.42.44,2.84.67,4.02.67,4.73,0,8.75-2.44,8.75-7.11,0-3.33-1.42-7.11-1.42-10.88,0-4,2.13-8.22,2.13-11.55Z" fill="#231f20" stroke="#fbee3a" stroke-miterlimit="10" stroke-width="3.71"/>
      <path d="M355.09,110.91c0-2.22-2.36-3.11-2.36-4.89-1.66,1.11-2.84,1.55-3.78,1.55s-1.66-.67-2.36-2.67c-.47-1.55-.95-2.89-.95-4.22s.47-2.44.95-4c1.42-3.33,4.96-3.55,7.09-6.66,3.31-4.66,3.31-8.22,4.49-13.77.71-3.11,3.31-13.55,4.26-16.66-2.84-2.44-10.4-6.22-15.84-7.77-2.84-.89-5.44-2.89-8.04-2.89-.95,0-1.89.22-2.84.89-2.6,1.78-1.66,4.66-2.84,7.55-2.13,5.33-4.02,8.22-5.91,13.55-1.66,4.44-3.78,7.33-3.78,11.33,0,6.44,5.91,8,7.33,13.77.71,2.89,1.66,6,1.66,8.66,0,2.22-.47,4.89-3.07,4.89-12.29,0-15.13-16.21-15.13-21.77,0-7.55,2.6-13.33,4.97-20.21,2.6-7.11,2.6-11.77,6.62-18.44,5.44-8.88,11.11-12.22,19.62-18.43,5.44-3.78,7.57-8.88,13.95-8.88,5.2,0,7.33,3.11,11.35,5.55,5.2,3.11,6.15,8.88,12.06,8.88,4.97,0,6.38-3.78,10.4-6.22,3.07-1.78,3.31-6.22,6.86-6.22,1.89,0,3.07,1.78,3.07,2.22,0,2.44-8.51,9.77-11.58,14.21-5.91,8.66-24.35,35.31-24.35,37.31s.95,2.44,2.36,2.44c3.31,0,9.22-3.33,13.95-3.33,13.95,0,25.3,9.77,25.3,22.65,0,3.78-.71,7.77-.71,12.22,0,8-2.13,8.88-2.13,12.66,0,4.22,2.6,11.55,2.6,17.1,0,22.43-1.42,26.65-3.31,31.76-2.13,5.77-4.26,10.44-7.09,14.66-3.55,5.33-8.04,9.55-14.9,13.55-8.75,5.11-18.44,8.22-27.43,8.22-5.67,0-11.11-1.33-15.6-4-9.22-5.55-9.22-3.78-14.42-7.33-4.02-2.89-4.49-7.11-9.46-8.66-2.36-.67-4.49-1.55-6.62-1.55-2.6,0-5.44,2.89-5.44,5.33,0,1.11.71,2.22,1.89,2.22,1.42,0,3.07-1.33,4.73-1.33,3.78,0,6.15,2.44,6.15,5.11,0,4-4.97,6.66-9.22,6.66-7.33,0-11.82-4.66-11.82-10.44,0-4,2.13-7.33,5.44-10.22,3.78-3.55,7.57-6,13-6,5.91,0,8.04,3.11,12.53,5.55,6.86,4,8.51,9.55,15.84,12.44,4.26,1.55,7.8,2.67,11.58,2.67-.71-7.33-.95-13.1-.95-19.99,0-17.99-2.13-35.98-2.13-47.53,0-3.55.24-6.66.71-8.66l3.31-12.88ZM360.3,160c.71,15.99.71,30.65.95,39.54,4.73-.44,10.64-3.55,12.29-5.77,3.31-4,4.26-19.99,4.26-30.65,0-2.67-.24-4.89-.24-6.66-6.15.22-11.58,1.33-17.26,3.55ZM361.71,122.68c2.13,0,4.02,1.78,6.38,1.78,4.02-.67,6.62-1.55,9.46-2.44,0-16.88-1.66-19.55-4.96-22.65-.95-.89-2.36-1.33-3.55-1.33-2.36,0-4.96,1.33-7.57,2.89-.24,14.88-.95,11.11-.95,16.66,0,1.78.47,3.11.95,5.11h.24ZM377.32,143.78c-5.91,1.33-9.22.67-16.55,2.67,0,.22-.24,4.44-.24,6,4.73-1.11,15.37-2.44,16.79-3.33v-5.33ZM377.32,133.12c.47-2,.47-2.89.47-5.55-3.55.22-14.19,3.11-16.79,3.78.24,1.55.95,3.78.95,5.33,5.2-1.11,10.4-1.78,15.37-3.55Z" fill="#231f20" stroke="#fbee3a" stroke-miterlimit="10" stroke-width="3.71"/>
      <path d="M550.39,168.21c0,3.78-7.57,6.44-10.4,9.33-4.26,4-6.62,9.77-12.77,9.77-3.31,0-4.49-2.67-6.38-4.22-4.97-4-10.17-13.99-17.5-14.88-8.04-.89-7.8-2.89-9.46-4.22-2.36-2.22-5.91-.89-5.91-4s1.65-3.33,3.55-5.77c3.07-3.78,6.38-5.11,8.04-9.77.71-2,.95-3.78.95-5.55,0-2.89-.71-5.55-2.13-8.88-.71-1.78-.47-4.22-3.55-4.22-1.18,0-2.6.44-4.73,1.11-1.89,0-3.55-1.55-5.91-1.55-3.55,0-4.26,3.11-7.09,3.33-2.84,0-4.02-1.78-6.86-2.44-2.36-.44-4.26-.67-6.15-.67-3.78,0-8.27,1.33-12.29,1.33-4.96,0-7.33.22-8.51,2.67-.24.67-.47,1.11-.47,1.55,0,1.11.71,2.22.71,3.78,0,4.89-4.96,8-4.96,7.77,0,4.89,8.28,6,12.77,9.99,3.78,3.33,4.73,8.44,9.93,8.44,4.73,0,4.96-8,9.46-8,4.02,0,7.8,2,7.8,5.55,0,4.22-7.8,2.67-8.75,6.44-.71,2.67-.95,4.44-.95,5.55,0,4.22-9.22,14.88-13.71,14.88-2.6,0-26.01-4-26.01-8,0-1.33,4.26-4,4.26-6.22,0-3.33-3.78-3.33-6.38-5.11-3.07-2.44-6.15-2.89-8.04-6.22-1.18-2.44-1.42-4.22-1.42-6.89,0-7.33,4.49-11.11,8.04-17.55,3.55-7.11,5.91-10.88,9.93-17.77,2.84-4.89,4.97-7.33,7.33-12.44,2.36-4.89,4.02-7.55,4.96-12.66.24-1.55,0-2.67.47-4.22,1.18-3.55,3.55-4.89,6.62-7.55,2.84-2.67,5.67-3.11,8.28-6,2.84-2.89,6.38-5.33,6.38-8.66,0-2.22-2.13-5.77-4.49-5.77-2.6,0-5.44,3.11-8.51,3.11-7.33,0-5.67-9.55-12.29-9.55-2.13,0-4.02,1.11-5.91,1.11-2.13,0-3.78-2-3.78-3.78,0-2.67,3.07-5.77,4.26-8.88,1.42-3.11,4.02-4.22,4.02-7.55,0-2.67-2.36-3.78-2.36-6,0-4.66,4.49-6.44,8.27-6.66,2.84,0,6.62.67,7.09.67,4.96,0,4.49-7.11,8.98-7.55,11.35-1.11,11.82-3.78,14.9-6.66,2.84-2.67,3.31-6.66,7.33-6.89,4.26,0,9.22,4.22,9.22,8.66,0,2,0,3.78,1.66,4,13,1.78,11.58,8.66,19.15,8.66,14.19,0,16.31-8.66,20.1-8.66,3.31,0,8.28,3.78,8.28,5.11,0,2.44-2.36,3.11-4.49,4.66-3.78,2.89-8.28,2.67-8.28,8.44,0,7.33-2.13,13.77-2.13,19.1,0,7.55,2.84,5.77,2.84,11.1,0,7.55,0,11.99-.71,15.77-.71,4.44-2.13,7.11-2.13,11.55.24,3.55,2.36,5.77,2.36,8.88,0,4.44-4.49,6.44-4.49,11.11s3.31,20.43,3.31,21.32c0,4-1.18,11.11-1.18,12.44,0,4.44,3.31,7.11,6.62,9.77,3.55,3.11,7.09,3.33,9.93,6.89,1.66,2.44,3.31,4.22,3.31,6.89v.67ZM484.66,44.06c0-2.89-2.36-6.22-4.96-8.88-2.84-2.67-5.2-4.44-9.22-4.44-4.73,0-7.09.89-9.93,2.67-3.78,2.22-8.04,4.66-8.04,8.44,0,.44,0,.89.24,1.33,1.18,4.44,9.46.89,11.11,5.11,1.18,2.22.47,6.89,3.07,6.89,10.4,0,14.9-6,16.55-8.22.71-.89,1.18-1.78,1.18-2.89ZM476.39,112.02c-2.36,0-6.86,2.67-9.46,2.89-2.6,0-4.49-.67-6.62-.67-1.89,0-6.38,1.33-6.62,3.55,0,.89.47,1.11,1.42,1.11,1.42,0,3.78-.67,5.44-.67,3.78.22,6.38,1.55,9.46,1.55,2.84,0,9.69-2,9.69-4.22,0-.22,0-.67-.24-.89l-3.07-2.67ZM473.31,94.48c-4.73.22-8.98,3.78-8.98,4.44s.47,1.11.95,1.11c4.96,0,7.57.22,9.46.22,5.67,0,12.06-1.11,16.31-2.67.95-.44,1.66-1.55,1.66-2.67,0-.89-.47-1.78-1.42-1.78-4.96.67-13,1.11-17.97,1.33ZM500.98,58.72c0-1.33-3.31-7.33-6.15-7.33-3.78,0-4.49,6.22-6.86,8.22-2.6,2.22-5.44,2.22-7.8,4.66-3.07,3.11-2.6,6.22-4.96,9.77-1.89,2.67-5.44,3.55-5.44,6.44,0,3.78,2.84,6,6.38,6.22,2.6,0,3.31-3.33,5.67-3.33,3.07,0,3.07,3.33,5.67,4.22,1.42.44,2.84.67,4.02.67,4.73,0,8.75-2.44,8.75-7.11,0-3.33-1.42-7.11-1.42-10.88,0-4,2.13-8.22,2.13-11.55Z" fill="#231f20" stroke="#fbee3a" stroke-miterlimit="10" stroke-width="3.71"/>
      <path d="M688.94,168.21c0,3.78-7.57,6.44-10.4,9.33-4.26,4-6.62,9.77-12.77,9.77-3.31,0-4.49-2.67-6.38-4.22-4.97-4-10.17-13.99-17.5-14.88-8.04-.89-7.8-2.89-9.46-4.22-2.36-2.22-5.91-.89-5.91-4s1.65-3.33,3.55-5.77c3.07-3.78,6.38-5.11,8.04-9.77.71-2,.95-3.78.95-5.55,0-2.89-.71-5.55-2.13-8.88-.71-1.78-.47-4.22-3.55-4.22-1.18,0-2.6.44-4.73,1.11-1.89,0-3.55-1.55-5.91-1.55-3.55,0-4.26,3.11-7.09,3.33-2.84,0-4.02-1.78-6.86-2.44-2.36-.44-4.26-.67-6.15-.67-3.78,0-8.27,1.33-12.29,1.33-4.96,0-7.33.22-8.51,2.67-.24.67-.47,1.11-.47,1.55,0,1.11.71,2.22.71,3.78,0,4.89-4.96,8-4.96,7.77,0,4.89,8.28,6,12.77,9.99,3.78,3.33,4.73,8.44,9.93,8.44,4.73,0,4.96-8,9.46-8,4.02,0,7.8,2,7.8,5.55,0,4.22-7.8,2.67-8.75,6.44-.71,2.67-.95,4.44-.95,5.55,0,4.22-9.22,14.88-13.71,14.88-2.6,0-26.01-4-26.01-8,0-1.33,4.26-4,4.26-6.22,0-3.33-3.78-3.33-6.38-5.11-3.07-2.44-6.15-2.89-8.04-6.22-1.18-2.44-1.42-4.22-1.42-6.89,0-7.33,4.49-11.11,8.04-17.55,3.55-7.11,5.91-10.88,9.93-17.77,2.84-4.89,4.97-7.33,7.33-12.44,2.36-4.89,4.02-7.55,4.96-12.66.24-1.55,0-2.67.47-4.22,1.18-3.55,3.55-4.89,6.62-7.55,2.84-2.67,5.67-3.11,8.28-6,2.84-2.89,6.38-5.33,6.38-8.66,0-2.22-2.13-5.77-4.49-5.77-2.6,0-5.44,3.11-8.51,3.11-7.33,0-5.67-9.55-12.29-9.55-2.13,0-4.02,1.11-5.91,1.11-2.13,0-3.78-2-3.78-3.78,0-2.67,3.07-5.77,4.26-8.88,1.42-3.11,4.02-4.22,4.02-7.55,0-2.67-2.36-3.78-2.36-6,0-4.66,4.49-6.44,8.27-6.66,2.84,0,6.62.67,7.09.67,4.96,0,4.49-7.11,8.98-7.55,11.35-1.11,11.82-3.78,14.9-6.66,2.84-2.67,3.31-6.66,7.33-6.89,4.26,0,9.22,4.22,9.22,8.66,0,2,0,3.78,1.66,4,13,1.78,11.58,8.66,19.15,8.66,14.19,0,16.31-8.66,20.1-8.66,3.31,0,8.28,3.78,8.28,5.11,0,2.44-2.36,3.11-4.49,4.66-3.78,2.89-8.28,2.67-8.28,8.44,0,7.33-2.13,13.77-2.13,19.1,0,7.55,2.84,5.77,2.84,11.1,0,7.55,0,11.99-.71,15.77-.71,4.44-2.13,7.11-2.13,11.55.24,3.55,2.36,5.77,2.36,8.88,0,4.44-4.49,6.44-4.49,11.11s3.31,20.43,3.31,21.32c0,4-1.18,11.11-1.18,12.44,0,4.44,3.31,7.11,6.62,9.77,3.55,3.11,7.09,3.33,9.93,6.89,1.66,2.44,3.31,4.22,3.31,6.89v.67ZM623.21,44.06c0-2.89-2.36-6.22-4.96-8.88-2.84-2.67-5.2-4.44-9.22-4.44-4.73,0-7.09.89-9.93,2.67-3.78,2.22-8.04,4.66-8.04,8.44,0,.44,0,.89.24,1.33,1.18,4.44,9.46.89,11.11,5.11,1.18,2.22.47,6.89,3.07,6.89,10.4,0,14.9-6,16.55-8.22.71-.89,1.18-1.78,1.18-2.89ZM614.94,112.02c-2.36,0-6.86,2.67-9.46,2.89-2.6,0-4.49-.67-6.62-.67-1.89,0-6.38,1.33-6.62,3.55,0,.89.47,1.11,1.42,1.11,1.42,0,3.78-.67,5.44-.67,3.78.22,6.38,1.55,9.46,1.55,2.84,0,9.69-2,9.69-4.22,0-.22,0-.67-.24-.89l-3.07-2.67ZM611.87,94.48c-4.73.22-8.98,3.78-8.98,4.44s.47,1.11.95,1.11c4.96,0,7.57.22,9.46.22,5.67,0,12.06-1.11,16.31-2.67.95-.44,1.66-1.55,1.66-2.67,0-.89-.47-1.78-1.42-1.78-4.96.67-13,1.11-17.97,1.33ZM639.53,58.72c0-1.33-3.31-7.33-6.15-7.33-3.78,0-4.49,6.22-6.86,8.22-2.6,2.22-5.44,2.22-7.8,4.66-3.07,3.11-2.6,6.22-4.96,9.77-1.89,2.67-5.44,3.55-5.44,6.44,0,3.78,2.84,6,6.38,6.22,2.6,0,3.31-3.33,5.67-3.33,3.07,0,3.07,3.33,5.67,4.22,1.42.44,2.84.67,4.02.67,4.73,0,8.75-2.44,8.75-7.11,0-3.33-1.42-7.11-1.42-10.88,0-4,2.13-8.22,2.13-11.55Z" fill="#231f20" stroke="#fbee3a" stroke-miterlimit="10" stroke-width="3.71"/>
      <path d="M849.72,138.9c0,4.22-.95,6.44-.95,8.88,0,.89.24,1.78.47,2.89,1.66,5.33,7.57,6,10.88,9.55.47.44,1.18.67,1.66.67,1.66,0,3.31-2,5.44-2s4.26,1.78,4.26,2.44-.71,1.55-1.66,3.55c-1.42,3.11-6.86,6.22-9.46,8.22-7.57,5.55-14.19,14.44-21.28,14.44-3.07,0-4.73-1.78-7.57-4-2.84-2.22-4.97-6.22-7.33-8.66-2.13-2.22-4.49-4-7.09-4-3.78,0-5.44,2.67-8.04,4.66-3.55,2.67-5.2,4.44-8.51,7.33-5.2,4.44-7.09,12.66-13.24,12.66-4.26,0-5.44-2.89-8.98-4.44-5.2-2.22-9.22-.44-14.19-3.11-4.26-2.22-4.97-5.55-9.22-8-4.73-2.67-8.04-4-13.48-4s-11.58,2.89-15.84,2.89c-7.33,0-14.66-1.55-14.66-7.11,0-4,3.55-5.33,6.38-7.55,9.69-7.55,12.53-9.11,15.84-13.55,1.89-2.67,2.13-4.66,3.78-7.33,1.42-2.44,2.84-3.33,4.49-5.77,5.67-8.44,7.8-16.21,7.8-24.65,0-2.67-3.07-4.66-5.67-4.66-5.44,0-13.48,4.66-16.55,6.66-2.36,1.55-3.31,5.11-5.44,5.11-3.55,0-4.49-6.44-4.49-9.11,0-5.11,3.55-9.11,6.38-14.44,3.31-6.66,4.49-11.77,11.35-15.33,4.73-2.22,3.31-2.44,13.24-2.44.95,0,1.18-.67,1.18-1.56,0-1.11-.47-2.67-1.18-3.78-3.55-5.77-3.78-13.99-11.58-17.77-3.31-1.55-6.15-2.67-9.22-2.67-7.33,0-9.46,4.44-13.48,9.55-3.55,4.89-5.44,8-6.62,13.77-.24,1.33-.47,2.44-.47,3.55,0,4.89,2.13,8.66,2.36,14.44.24,3.78.47,6.66.47,9.77,0,2-.24,4-.47,6.44-.71,6.89-.71,11.33-4.02,17.55-1.42,2.67-4.96,10.66-8.98,10.66-1.42,0-3.55-2.67-3.78-4.44,0-2.44,5.2-8.22,5.2-13.77,0-4.44-2.84-6-2.84-9.77,0-2,.47-3.78.47-5.33,0-4.66-1.18-7.33-1.18-8.88-.24-5.11-.71-8.44-.71-11.99,0-9.77,1.18-15.33,1.42-16.88.47-3.55,4.49-9.55,7.33-15.77,1.89-4.22,2.13-7.11,4.73-11.11,3.55-5.11,7.8-6.22,12.29-10.66,4.96-5.11,7.33-10.66,15.84-10.66,1.89,0,4.02.22,6.15.67,8.04,1.11,10.4,6.66,17.5,10.44,4.02,2.22,6.62,2.67,10.17,5.33,3.55,2.89,3.31,7.77,7.8,8.66.95.22,1.66.22,2.36.22,3.07,0,5.44-1.33,7.8-3.55.71-.67.71-2.67.71-5.11,0-8.88,0-11.55.95-12.22.95-.89,2.84-1.33,4.49-1.33,3.78,0,4.02,9.77,5.91,10.66,6.86-6.89,8.75-7.33,10.64-7.33,3.78,0,7.57,1.78,12.06,2.89,6.15,1.55,10.4,2,14.9,6.22,4.26,4,5.2,7.55,6.62,13.1.95,3.33,1.42,5.55,1.42,8.22,0,4.66-3.31,8.44-3.55,12.88,0,1.55.24,7.77.24,7.55,0,4-4.02,7.33-7.33,9.11-2.13,1.11-3.78.89-6.15,2-1.89.89-8.04,6.66-8.04,6.89,0,.67,0,1.78.24,2.44.71,1.78,2.36,1.78,4.02,2.67,4.02,2.22,7.09,1.11,11.11,3.11,4.49,2.22,6.62,4.22,9.46,8.22,2.84,3.78,4.96,8.88,4.96,13.77,0,6.66-1.42,7.77-1.42,9.55,0,.44,0,.89.24,1.33.24,1.33,1.66,1.55,1.66,3.11ZM789.43,60.05c0-3.55-2.84-8.22-3.31-8.22-1.66,0-6.62,1.78-6.62,4.22,0,1.11.71,4.44,3.07,15.55,0,3.78.95,9.33.95,11.99,0,6-1.66,12.66-1.66,13.77,0,4.66,0,6.22-.47,8-.71,3.55-2.13,5.33-3.07,8.88-1.18,4.66-.24,9.11-1.66,12.22-2.36,5.11-3.78,6.22-7.57,9.11-9.69,7.55-12.77,7.33-12.77,9.77,0,3.55,4.49,3.78,7.57,5.77,6.38,3.78,13,1.11,18.92,3.55,2.84-4.22,2.6-7.77,3.31-12.66,2.36-15.99,3.31-18.88,3.78-24.43.24-3.11.47-5.55.47-8,0-3.78-1.18-19.55-1.18-24.21l.24-25.32ZM791.79,162.22c4.73,3.11,8.51,3.33,14.19,3.33,2.36,0,4.49-1.55,6.38-2.22.24-11.11,1.66-8.66,1.66-11.99,0-2.44-1.18-8.44-1.18-9.33,0-4.89.95-7.11.95-9.99,0-5.11,0-6.44-1.18-8.22-1.42-2.22-3.07-2.67-5.44-4.22-2.37-1.33-3.55-3.11-6.15-3.11-2.13,0-3.78.89-4.73,2.22-1.65,2.44-1.89,4.89-1.89,7.77,0,4,1.65,10.66,1.65,13.55s-2.84,3.11-3.55,6.22c-1.18,4.66-.47,11.33-2.6,14.44l1.89,1.55ZM802.91,94.7c2.36-2,3.07-3.55,5.2-5.77,1.89-2,3.31-2.67,4.73-4.89,1.66-2.67,2.36-5.11,2.36-7.77,0-4.22-1.89-8.22-4.96-11.99-2.13-2.89-4.02-4.22-7.33-5.77-1.42-.67-2.6-1.33-4.02-1.78-.95,3.78-1.42,7.11-2.36,11.33-.71,4-.95,6.89-.95,9.33,0,5.77,1.42,8.44,1.89,11.99.24,2.89.47,5.33.47,7.55,1.66-.44,3.31-.89,4.97-2.22Z" fill="#231f20" stroke="#fbee3a" stroke-miterlimit="10" stroke-width="3.71"/>
    </g>
  </g>
</svg>